<svg width="73" height="240" viewBox="0 0 73 240" fill="none" xmlns="http://www.w3.org/2000/svg">
<path d="M-74.7931 234.286L-75.1932 231.995C-75.1932 231.995 -48.4495 221.441 -48.9324 219.137C-49.408 216.822 -77.1531 225.075 -77.1531 225.075L-76.9702 221.035C-76.9702 221.035 -63.3816 216.429 -64.1396 213.809C-64.8976 211.19 -77.2136 215.256 -77.2136 215.256L-77.2614 213.7C-77.2614 213.7 -49.6634 201.523 -50.9408 195.661C-52.2182 189.799 -81.2178 197.384 -81.2178 197.384L-83.6385 183.463C-83.6385 183.463 12.2067 165.174 -0.914822 113.762C-14.1584 61.8756 -105.071 54.4604 -105.071 54.4604L-106.602 45.6724C-106.602 45.6724 -57.5286 49.9327 -59.3614 42.7496C-61.187 35.5563 -107.91 30.2836 -107.91 30.2836L-108.376 27.5899C-108.376 27.5899 -84.8236 27.8256 -85.5275 24.0556C-86.2327 20.2768 -110.345 16.2205 -110.345 16.2205L-111.404 10.1613C-111.404 10.1613 -85.4376 12.9622 -86.2291 10.4115C-87.0207 7.8607 -112.343 6.84256e-05 -112.343 6.84256e-05C-95.7525 2.9978 -77.6926 7.37482 -59.7291 12.9186C-49.745 16.1296 -38.8032 14.6704 -32.3717 17.2823C-26.0446 19.8573 -14.1419 20.1209 -10.1566 20.2988C-6.20771 20.4736 30.7916 22.322 39.7092 24.6457C39.7092 24.6457 19.5083 22.3441 15.588 23.8282C11.6169 25.3296 5.06136 20.8585 0.274029 21.8004C-4.58305 22.7537 -21.0273 21.8094 -23.6195 22.6005C-26.2305 23.3856 -8.02718 29.9064 -3.47718 31.1883C1.02637 32.4598 11.2401 32.6299 15.9391 34.6069C20.5802 36.5574 27.7405 36.7755 27.7405 36.7755C27.7405 36.7755 19.5147 37.3245 17.2337 37.0038C14.944 36.6844 12.2147 38.7209 10.6222 38.8904C9.02105 39.0614 16.3385 43.7591 21.1881 44.9022C25.9724 46.029 43.5329 46.243 43.5329 46.243C43.5329 46.243 32.9204 47.8554 29.6001 47.3084C26.2536 46.7656 28.1364 52.7175 30.5562 52.7369C32.9587 52.759 40.7223 52.2853 40.7223 52.2853C40.7223 52.2853 34.1934 53.2503 33.9921 54.542C33.7822 55.8352 38.6247 57.4291 38.6247 57.4291C38.6247 57.4291 33.4084 57.0021 36.6327 59.6511C55.9013 75.0717 69.3396 93.4927 72.2292 115.62C74.8602 135.721 59.5857 154.864 37.7978 172.101C37.6464 172.215 37.5037 172.329 37.3625 172.451L37.3071 172.496C34.9632 174.37 33.8876 175.625 34.5794 176.024C35.3189 176.443 40.1237 175.499 40.1237 175.499C40.1237 175.499 35.2928 176.942 34.3531 177.932C33.4134 178.921 38.9718 179.58 40.7668 179.171C42.5531 178.763 50.8568 176.879 53.5248 176.993C56.1826 177.099 59.264 177.389 61.313 176.065C63.3459 174.754 71.5548 174.046 71.5548 174.046C71.5548 174.046 63.6162 176.248 62.3025 176.974C60.98 177.702 55.9455 177.731 53.757 178.088C51.5597 178.446 45.3708 182.377 41.4679 181.88C37.5184 181.373 28.7877 182.777 25.7708 183.763C22.7191 184.755 13.3397 189.485 28.3333 189.272C42.7371 189.065 42.2302 188.042 45.8825 188.319C49.4986 188.593 54.3112 187.422 54.3112 187.422C54.3112 187.422 48.3119 190.594 45.8734 189.471C43.4161 188.343 24.5175 193.32 21.0887 193.096C17.6323 192.868 10.2299 194.02 6.06158 196.399C1.83509 198.806 23.0636 195.823 23.0636 195.823C23.0636 195.823 11.6519 198.573 8.43496 198.44C5.18168 198.305 -1.83565 200.393 -7.09749 203.202C-12.4437 206.042 1.60869 207.853 9.75559 205.941C17.7208 204.067 26.6629 199.4 32.4213 200.188C38.097 200.963 63.0876 195.964 63.0876 195.964C63.0876 195.964 56.1217 199.357 54.1857 199.285C52.2497 199.214 36.6674 200.593 30.6088 202.138C24.4485 203.717 16.0505 204.034 10.9266 206.865C5.72119 209.746 -10.5367 209.67 -13.6686 210.774C-16.834 211.892 -40.9558 221.893 33.967 204.675C33.967 204.675 14.6874 209.84 11.1119 210.639C7.49276 211.444 -9.06856 214.341 -14.4459 215.891C-19.9003 217.464 -35.5901 221.369 -43.7748 223.818C-52.1297 226.321 -50.1066 228.959 -39.6714 226.863C-39.6714 226.863 -56.333 231.781 -61.9818 232.765C-67.7076 233.77 -79.2553 238.376 -59.4927 234.472L-73.5935 239.45L-74.7277 234.302L-74.7931 234.286ZM-32.1799 194.124C-37.4807 196.363 -39.9891 198.328 -47.2917 199.599C-54.7338 200.892 -68.5502 213.053 -60.1676 215.06C-51.9433 217.029 -35.3962 202.894 -24.5899 192.419C-23.4611 191.327 -22.8841 190.199 -32.1712 194.122L-32.1799 194.124ZM-6.11244 179.805C-3.94985 175.828 -15.6151 181.416 -17.1494 183.59C-18.691 185.775 -22.5428 189.217 -22.4726 190.582C-22.4112 191.947 -7.15941 181.729 -6.10372 179.803L-6.11244 179.805ZM-9.94507 52.9069C-9.36959 55.34 38.5065 90.5406 45.3837 113.025C52.2076 135.348 26.613 157.018 26.18 163.149C25.7513 169.307 60.5852 154.296 54.428 114.258C48.295 74.3688 -11.4248 46.6825 -9.9538 52.9084L-9.94507 52.9069ZM35.1162 71.3276C25.9781 61.2793 19.8447 60.5522 22.1067 62.9533C23.7952 64.7464 40.122 81.8334 46.1429 92.4166C52.1002 102.884 44.069 81.1723 35.1075 71.329L35.1162 71.3276ZM22.097 159.075C28.1705 149.273 21.6643 158.507 8.39227 166.704C-5.41665 175.231 -17.7303 174.423 -19.8672 181.084C-20.7465 183.817 15.8878 169.089 22.097 159.075ZM-46.5048 194.651C-42.9932 195.877 -22.2432 191.605 -19.2569 184.554C-16.3101 177.591 -61.1403 189.536 -46.5048 194.651ZM-2.17104 107.097C0.164448 111.212 24.6919 158.302 -81.3047 184.602C-81.3047 184.602 -77.6486 193.197 -70.2464 192.647C-62.9865 192.103 33.5227 166.134 -2.17104 107.097C-2.27362 106.907 -2.34308 106.81 -2.34308 106.81C-2.28236 106.908 -2.23177 106.999 -2.17104 107.097ZM-15.4922 87.8563C8.5163 113.305 15.9662 141.226 -4.86608 161.527C-4.86608 161.527 29.3379 137.267 22.5295 101.912C15.7184 66.5392 -104.096 52.2063 -104.096 52.2063C-104.096 52.2063 -40.7766 61.0603 -15.5009 87.8577L-15.4922 87.8563ZM-36.2799 63.7177C32.9394 83.2916 32.1431 107.242 19.5852 134.378C6.39878 162.874 -36.5477 181.985 -36.5477 181.985C-36.5477 181.985 57.7695 156.077 42.3313 112.255C26.576 67.5306 -37.5201 54.0191 -52.9467 51.7399C-68.9787 49.3705 -119.463 40.1874 -36.2799 63.7177ZM-53.4295 44.3279C-51.4644 46.9392 -11.2819 60.1929 -0.279906 66.5742C10.4364 72.7953 0.0381167 60.0119 -18.7122 49.2548C-38.3225 37.9994 -56.5608 40.162 -53.4295 44.3279ZM-85.0152 22.6952C-81.6044 26.6536 -74.4015 36.3608 -58.5342 38.4333C-43.2521 40.4303 -33.7669 42.3918 -47.4951 33.8918C-61.6611 25.1214 -95.8311 10.1506 -85.0239 22.6966L-85.0152 22.6952ZM-26.5392 22.6446C-32.1919 19.9237 -38.2956 21.0263 -43.711 22.6731C-49.202 24.3502 -31.0894 27.5136 -27.6748 26.6065C-24.3023 25.7152 -6.92077 32.0822 -26.5406 22.6358L-26.5392 22.6446ZM8.07871 38.9362C5.475 37.1843 1.28666 34.3867 -1.60253 35.442C-4.51789 36.5016 -12.0017 35.1222 -9.0246 37.3528C-6.0678 39.5688 -2.25978 42.7791 3.1455 41.6195C8.46501 40.4829 11.9988 41.5707 8.08744 38.9348L8.07871 38.9362ZM14.0332 42.7949C12.2971 40.8746 9.43022 41.2429 8.33383 41.6553C7.22872 42.0692 15.9633 44.9173 14.0332 42.7949ZM-9.65024 38.7317C-23.2748 31.5817 -46.7046 23.6374 -48.7882 27.9337C-50.8835 32.2677 -44.1146 34.7527 -21.7238 43.3519C-0.489433 51.501 18.7102 62.1039 20.3882 60.9762C22.2204 59.7514 3.55085 45.645 -9.64152 38.7303L-9.65024 38.7317ZM69.5109 104.651C69.5109 104.651 73.5205 127.774 64.6269 143.395C64.6269 143.395 77.5008 128.142 69.5109 104.651ZM69.537 111.787C65.7359 85.8788 48.1778 70.1344 48.1778 70.1344C83.6835 121.811 55.7473 154.653 55.7473 154.653C55.7473 154.653 73.3436 137.785 69.537 111.787ZM65.0069 111.176C60.1825 68.2772 10.2027 47.4117 10.2027 47.4117C94.5527 110.184 35 172.674 35 172.674C35 172.674 69.8794 154.482 65.0069 111.176ZM20.4201 185.643C22.693 182.727 29.1967 179.41 30.392 178.946C34.3808 177.388 30.9878 176.34 25.9975 176.146C20.9359 175.955 19.1092 180.838 17.9073 184.613C16.6996 188.407 18.1327 188.578 20.4201 185.643ZM16.2829 186.29C16.9689 184.622 13.4231 187.25 13.2182 188.794C13.0133 190.339 15.5969 187.957 16.2829 186.29ZM-20.3913 202.805C4.12497 192.479 26.5371 168.801 24.005 165.347C22.004 162.625 4.43989 173.319 -17.6269 189.01C-41.1942 205.763 -46.6673 213.867 -20.3913 202.805ZM-23.5376 208.929C-18.3042 207.429 -13.8432 205.803 -11.6568 205.158C-7.63567 203.964 -10.7875 201.375 -17.8331 203.179C-25.0167 205.015 -31.7038 207.922 -32.8987 209.267C-34.1009 210.623 -28.8394 210.449 -23.5289 208.928L-23.5376 208.929ZM-50.9179 227.221C-53.2999 224.633 -54.6523 228.198 -58.516 229.205C-62.4131 230.227 -48.6981 229.638 -50.9179 227.221Z" fill="url(#paint0_linear_3_2281)"/>
<path d="M-74.7931 234.286L-75.1932 231.995C-75.1932 231.995 -48.4495 221.441 -48.9324 219.137C-49.408 216.822 -77.1531 225.075 -77.1531 225.075L-76.9702 221.035C-76.9702 221.035 -63.3816 216.429 -64.1396 213.809C-64.8976 211.19 -77.2136 215.256 -77.2136 215.256L-77.2614 213.7C-77.2614 213.7 -49.6634 201.523 -50.9408 195.661C-52.2182 189.799 -81.2178 197.384 -81.2178 197.384L-83.6385 183.463C-83.6385 183.463 12.2067 165.174 -0.914822 113.762C-14.1584 61.8756 -105.071 54.4604 -105.071 54.4604L-106.602 45.6724C-106.602 45.6724 -57.5286 49.9327 -59.3614 42.7496C-61.187 35.5563 -107.91 30.2836 -107.91 30.2836L-108.376 27.5899C-108.376 27.5899 -84.8236 27.8256 -85.5275 24.0556C-86.2327 20.2768 -110.345 16.2205 -110.345 16.2205L-111.404 10.1613C-111.404 10.1613 -85.4376 12.9622 -86.2291 10.4115C-87.0207 7.8607 -112.343 6.84256e-05 -112.343 6.84256e-05C-95.7525 2.9978 -77.6926 7.37482 -59.7291 12.9186C-49.745 16.1296 -38.8032 14.6704 -32.3717 17.2823C-26.0446 19.8573 -14.1419 20.1209 -10.1566 20.2988C-6.20771 20.4736 30.7916 22.322 39.7092 24.6457C39.7092 24.6457 19.5083 22.3441 15.588 23.8282C11.6169 25.3296 5.06136 20.8585 0.274029 21.8004C-4.58305 22.7537 -21.0273 21.8094 -23.6195 22.6005C-26.2305 23.3856 -8.02718 29.9064 -3.47718 31.1883C1.02637 32.4598 11.2401 32.6299 15.9391 34.6069C20.5802 36.5574 27.7405 36.7755 27.7405 36.7755C27.7405 36.7755 19.5147 37.3245 17.2337 37.0038C14.944 36.6844 12.2147 38.7209 10.6222 38.8904C9.02105 39.0614 16.3385 43.7591 21.1881 44.9022C25.9724 46.029 43.5329 46.243 43.5329 46.243C43.5329 46.243 32.9204 47.8554 29.6001 47.3084C26.2536 46.7656 28.1364 52.7175 30.5562 52.7369C32.9587 52.759 40.7223 52.2853 40.7223 52.2853C40.7223 52.2853 34.1934 53.2503 33.9921 54.542C33.7822 55.8352 38.6247 57.4291 38.6247 57.4291C38.6247 57.4291 33.4084 57.0021 36.6327 59.6511C55.9013 75.0717 69.3396 93.4927 72.2292 115.62C74.8602 135.721 59.5857 154.864 37.7978 172.101C37.6464 172.215 37.5037 172.329 37.3625 172.451L37.3071 172.496C34.9632 174.37 33.8876 175.625 34.5794 176.024C35.3189 176.443 40.1237 175.499 40.1237 175.499C40.1237 175.499 35.2928 176.942 34.3531 177.932C33.4134 178.921 38.9718 179.58 40.7668 179.171C42.5531 178.763 50.8568 176.879 53.5248 176.993C56.1826 177.099 59.264 177.389 61.313 176.065C63.3459 174.754 71.5548 174.046 71.5548 174.046C71.5548 174.046 63.6162 176.248 62.3025 176.974C60.98 177.702 55.9455 177.731 53.757 178.088C51.5597 178.446 45.3708 182.377 41.4679 181.88C37.5184 181.373 28.7877 182.777 25.7708 183.763C22.7191 184.755 13.3397 189.485 28.3333 189.272C42.7371 189.065 42.2302 188.042 45.8825 188.319C49.4986 188.593 54.3112 187.422 54.3112 187.422C54.3112 187.422 48.3119 190.594 45.8734 189.471C43.4161 188.343 24.5175 193.32 21.0887 193.096C17.6323 192.868 10.2299 194.02 6.06158 196.399C1.83509 198.806 23.0636 195.823 23.0636 195.823C23.0636 195.823 11.6519 198.573 8.43496 198.44C5.18168 198.305 -1.83565 200.393 -7.09749 203.202C-12.4437 206.042 1.60869 207.853 9.75559 205.941C17.7208 204.067 26.6629 199.4 32.4213 200.188C38.097 200.963 63.0876 195.964 63.0876 195.964C63.0876 195.964 56.1217 199.357 54.1857 199.285C52.2497 199.214 36.6674 200.593 30.6088 202.138C24.4485 203.717 16.0505 204.034 10.9266 206.865C5.72119 209.746 -10.5367 209.67 -13.6686 210.774C-16.834 211.892 -40.9558 221.893 33.967 204.675C33.967 204.675 14.6874 209.84 11.1119 210.639C7.49276 211.444 -9.06856 214.341 -14.4459 215.891C-19.9003 217.464 -35.5901 221.369 -43.7748 223.818C-52.1297 226.321 -50.1066 228.959 -39.6714 226.863C-39.6714 226.863 -56.333 231.781 -61.9818 232.765C-67.7076 233.77 -79.2553 238.376 -59.4927 234.472L-73.5935 239.45L-74.7277 234.302L-74.7931 234.286ZM-32.1799 194.124C-37.4807 196.363 -39.9891 198.328 -47.2917 199.599C-54.7338 200.892 -68.5502 213.053 -60.1676 215.06C-51.9433 217.029 -35.3962 202.894 -24.5899 192.419C-23.4611 191.327 -22.8841 190.199 -32.1712 194.122L-32.1799 194.124ZM-6.11244 179.805C-3.94985 175.828 -15.6151 181.416 -17.1494 183.59C-18.691 185.775 -22.5428 189.217 -22.4726 190.582C-22.4112 191.947 -7.15941 181.729 -6.10372 179.803L-6.11244 179.805ZM-9.94507 52.9069C-9.36959 55.34 38.5065 90.5406 45.3837 113.025C52.2076 135.348 26.613 157.018 26.18 163.149C25.7513 169.307 60.5852 154.296 54.428 114.258C48.295 74.3688 -11.4248 46.6825 -9.9538 52.9084L-9.94507 52.9069ZM35.1162 71.3276C25.9781 61.2793 19.8447 60.5522 22.1067 62.9533C23.7952 64.7464 40.122 81.8334 46.1429 92.4166C52.1002 102.884 44.069 81.1723 35.1075 71.329L35.1162 71.3276ZM22.097 159.075C28.1705 149.273 21.6643 158.507 8.39227 166.704C-5.41665 175.231 -17.7303 174.423 -19.8672 181.084C-20.7465 183.817 15.8878 169.089 22.097 159.075ZM-46.5048 194.651C-42.9932 195.877 -22.2432 191.605 -19.2569 184.554C-16.3101 177.591 -61.1403 189.536 -46.5048 194.651ZM-2.17104 107.097C0.164448 111.212 24.6919 158.302 -81.3047 184.602C-81.3047 184.602 -77.6486 193.197 -70.2464 192.647C-62.9865 192.103 33.5227 166.134 -2.17104 107.097C-2.27362 106.907 -2.34308 106.81 -2.34308 106.81C-2.28236 106.908 -2.23177 106.999 -2.17104 107.097ZM-15.4922 87.8563C8.5163 113.305 15.9662 141.226 -4.86608 161.527C-4.86608 161.527 29.3379 137.267 22.5295 101.912C15.7184 66.5392 -104.096 52.2063 -104.096 52.2063C-104.096 52.2063 -40.7766 61.0603 -15.5009 87.8577L-15.4922 87.8563ZM-36.2799 63.7177C32.9394 83.2916 32.1431 107.242 19.5852 134.378C6.39878 162.874 -36.5477 181.985 -36.5477 181.985C-36.5477 181.985 57.7695 156.077 42.3313 112.255C26.576 67.5306 -37.5201 54.0191 -52.9467 51.7399C-68.9787 49.3705 -119.463 40.1874 -36.2799 63.7177ZM-53.4295 44.3279C-51.4644 46.9392 -11.2819 60.1929 -0.279906 66.5742C10.4364 72.7953 0.0381167 60.0119 -18.7122 49.2548C-38.3225 37.9994 -56.5608 40.162 -53.4295 44.3279ZM-85.0152 22.6952C-81.6044 26.6536 -74.4015 36.3608 -58.5342 38.4333C-43.2521 40.4303 -33.7669 42.3918 -47.4951 33.8918C-61.6611 25.1214 -95.8311 10.1506 -85.0239 22.6966L-85.0152 22.6952ZM-26.5392 22.6446C-32.1919 19.9237 -38.2956 21.0263 -43.711 22.6731C-49.202 24.3502 -31.0894 27.5136 -27.6748 26.6065C-24.3023 25.7152 -6.92077 32.0822 -26.5406 22.6358L-26.5392 22.6446ZM8.07871 38.9362C5.475 37.1843 1.28666 34.3867 -1.60253 35.442C-4.51789 36.5016 -12.0017 35.1222 -9.0246 37.3528C-6.0678 39.5688 -2.25978 42.7791 3.1455 41.6195C8.46501 40.4829 11.9988 41.5707 8.08744 38.9348L8.07871 38.9362ZM14.0332 42.7949C12.2971 40.8746 9.43022 41.2429 8.33383 41.6553C7.22872 42.0692 15.9633 44.9173 14.0332 42.7949ZM-9.65024 38.7317C-23.2748 31.5817 -46.7046 23.6374 -48.7882 27.9337C-50.8835 32.2677 -44.1146 34.7527 -21.7238 43.3519C-0.489433 51.501 18.7102 62.1039 20.3882 60.9762C22.2204 59.7514 3.55085 45.645 -9.64152 38.7303L-9.65024 38.7317ZM69.5109 104.651C69.5109 104.651 73.5205 127.774 64.6269 143.395C64.6269 143.395 77.5008 128.142 69.5109 104.651ZM69.537 111.787C65.7359 85.8788 48.1778 70.1344 48.1778 70.1344C83.6835 121.811 55.7473 154.653 55.7473 154.653C55.7473 154.653 73.3436 137.785 69.537 111.787ZM65.0069 111.176C60.1825 68.2772 10.2027 47.4117 10.2027 47.4117C94.5527 110.184 35 172.674 35 172.674C35 172.674 69.8794 154.482 65.0069 111.176ZM20.4201 185.643C22.693 182.727 29.1967 179.41 30.392 178.946C34.3808 177.388 30.9878 176.34 25.9975 176.146C20.9359 175.955 19.1092 180.838 17.9073 184.613C16.6996 188.407 18.1327 188.578 20.4201 185.643ZM16.2829 186.29C16.9689 184.622 13.4231 187.25 13.2182 188.794C13.0133 190.339 15.5969 187.957 16.2829 186.29ZM-20.3913 202.805C4.12497 192.479 26.5371 168.801 24.005 165.347C22.004 162.625 4.43989 173.319 -17.6269 189.01C-41.1942 205.763 -46.6673 213.867 -20.3913 202.805ZM-23.5376 208.929C-18.3042 207.429 -13.8432 205.803 -11.6568 205.158C-7.63567 203.964 -10.7875 201.375 -17.8331 203.179C-25.0167 205.015 -31.7038 207.922 -32.8987 209.267C-34.1009 210.623 -28.8394 210.449 -23.5289 208.928L-23.5376 208.929ZM-50.9179 227.221C-53.2999 224.633 -54.6523 228.198 -58.516 229.205C-62.4131 230.227 -48.6981 229.638 -50.9179 227.221Z" fill="#21232A"/>
<defs>
<linearGradient id="paint0_linear_3_2281" x1="68.5962" y1="93.38" x2="-94.5059" y2="119.957" gradientUnits="userSpaceOnUse">
<stop stop-color="#222636"/>
<stop offset="0.19" stop-color="#2B3044"/>
<stop offset="0.56" stop-color="#434A69"/>
<stop offset="1" stop-color="#67719F"/>
</linearGradient>
</defs>
</svg>
